<?xml version="1.0" standalone="no"?><!DOCTYPE svg PUBLIC "-//W3C//DTD SVG 1.1//EN" "http://www.w3.org/Graphics/SVG/1.1/DTD/svg11.dtd"><svg t="1701353647221" class="icon" viewBox="0 0 1024 1024" version="1.1" xmlns="http://www.w3.org/2000/svg" p-id="1456" xmlns:xlink="http://www.w3.org/1999/xlink" width="200" height="200"><path d="M885.12 411.456c-3.392 21.12-6.4 41.28-9.792 61.312-6.208 35.968-11.904 71.936-19.2 107.52a5402.496 5402.496 0 0 1-32.448 147.84c-10.688 45.76-22.4 91.264-34.048 136.768a631.04 631.04 0 0 1-15.488 51.648c-1.856 5.312-7.168 9.408-11.2 13.888-18.624 20.352-38.72 19.648-64.512 11.328-74.624-24.192-151.68-22.4-228.352-10.24-23.04 3.648-44.992 13.376-67.776 19.2a30.016 30.016 0 0 1-23.488-2.624c-32.384-16.576-35.072-48-42.752-76.672a2245.12 2245.12 0 0 1-28.16-118.72c-10.944-51.52-20.864-103.296-30.72-155.008-8.96-48.32-17.344-96.768-25.792-145.216-1.984-11.2-2.752-22.592-4.224-34.752 23.872-0.576 45.696-1.6 67.52-1.152 4.288 0.064 10.624 5.056 12.288 9.28a264 264 0 0 0 64.96 93.632c35.52 33.92 78.464 55.424 127.808 62.72 44.16 6.592 87.68 4.224 129.984-10.56 32.832-11.456 61.12-30.08 87.04-53.504 30.72-27.776 50.88-62.272 70.272-97.856 2.112-3.904 8.768-7.36 13.44-7.552 20.416-1.152 40.832-0.96 64.64-1.28" fill="#DB0006" p-id="1457"></path><path d="M267.648 397.056h71.872c34.624 116.096 108.928 172.736 222.912 169.792 170.88-4.352 222.72-154.24 232.96-177.664h77.824l46.4-168.32c-40.32-2.816-60.48-0.192-60.672 7.936-0.128 8.128-3.712 20.352-10.752 36.672-22.912-10.112-39.68-15.232-50.432-15.36-10.368 65.92-19.584 104.32-27.648 115.008 5.76-98.176 11.968-151.04 18.624-158.528-21.888-8.64-42.88-4.992-63.04 10.88l-13.632 91.328-9.792-151.68-64 28.16 9.792 39.872-52.48 11.264-22.976 109.44c-4.608-82.176-3.584-140.416 3.072-174.656l-48.832-28.16-13.824 116.544-14.336-143.616-55.296 36.672c7.552 108.864 11.264 166.208 11.136 172.032L430.72 221.312c-35.328 6.784-53.12 16.384-53.312 28.928l16.448 92.544-40.896-122.816-62.08-10.048 32.128 147.392-33.024-94.784c-27.52 4.096-46.72 20.672-57.728 49.536l35.456 84.992zM611.968 660.608c18.432 0 33.344 66.56 33.344 148.608h26.688c0-88.384-26.88-160-60.032-160-18.816 0-35.648 21.504-46.592 55.168-11.008-33.664-27.84-55.168-46.72-55.168-33.152 0-59.968 71.616-59.968 160h26.688c0-82.048 14.912-148.608 33.28-148.608 18.432 0 33.344 61.44 33.344 137.152h26.688c0-75.712 14.912-137.152 33.28-137.152z" fill="#FFBC0D" p-id="1458"></path></svg>